<?xml version="1.0" encoding="iso-8859-1"?>
<!-- Generator: Adobe Illustrator 16.0.4, SVG Export Plug-In . SVG Version: 6.00 Build 0)  -->
<!DOCTYPE svg PUBLIC "-//W3C//DTD SVG 1.1//EN" "http://www.w3.org/Graphics/SVG/1.1/DTD/svg11.dtd">
<svg version="1.1" xmlns="http://www.w3.org/2000/svg" xmlns:xlink="http://www.w3.org/1999/xlink" x="0px" y="0px"
	 width="150.836px" height="72.94px" viewBox="0 0 150.836 72.94" style="enable-background:new 0 0 150.836 72.94;"
	 xml:space="preserve">
<g id="Layer_1">
</g>
<g id="fish">
	<g id="_x34_">
		<path style="fill:#3C91CF;" d="M10.206,43.166c0-2.311,0-11.072,0-13.383c0-9.494-4.032-17.885-10.206-23.089
			c0.325,0,0.645,0,0.98,0c8.272,0,13.95,14.776,27.977,23.511c10.176-6.468,28.187-16.098,49.69-19.717
			c-5.762-5.343-13.32-9.093-21.795-10.438c0.682-0.032,1.368-0.047,2.059-0.047c10.441,0,19.958,3.604,27.108,9.512
			c3.105-0.3,6.256-0.479,9.459-0.479c41.691,0,55.357,27.437,55.357,27.437S137.17,63.911,95.479,63.911
			c-3.203,0-6.354-0.18-9.459-0.477c-7.15,5.907-16.667,9.51-27.108,9.51c-2.39,0-4.726-0.197-7.002-0.558
			c9.991-0.458,19.023-4.216,25.792-10.09C56.685,58.571,39.095,49.18,29.053,42.805C15.124,51.548,9.236,66.254,0.98,66.254
			c-0.336,0-0.655,0-0.98,0C6.174,61.049,10.206,52.661,10.206,43.166z"/>
	</g>
</g>
</svg>
