<?xml version="1.0" encoding="iso-8859-1"?>
<!-- Generator: Adobe Illustrator 16.0.4, SVG Export Plug-In . SVG Version: 6.00 Build 0)  -->
<!DOCTYPE svg PUBLIC "-//W3C//DTD SVG 1.1//EN" "http://www.w3.org/Graphics/SVG/1.1/DTD/svg11.dtd">
<svg version="1.1" xmlns="http://www.w3.org/2000/svg" xmlns:xlink="http://www.w3.org/1999/xlink" x="0px" y="0px"
	 width="88.695px" height="42.89px" viewBox="0 0 88.695 42.89" style="enable-background:new 0 0 88.695 42.89;"
	 xml:space="preserve">
<g id="Layer_1">
</g>
<g id="fish">
	<g id="_x39_">
		<path style="fill:#3C91CF;" d="M6.002,25.384c0-1.358,0-6.511,0-7.868C6.002,11.93,3.632,6.997,0,3.936c0.192,0,0.379,0,0.578,0
			c4.864,0,8.203,8.69,16.45,13.827c5.983-3.806,16.574-9.468,29.219-11.594c-3.39-3.142-7.833-5.348-12.815-6.138
			c0.4-0.02,0.803-0.027,1.209-0.027c6.141,0,11.736,2.119,15.941,5.593c1.824-0.178,3.678-0.281,5.562-0.281
			c24.514,0,32.551,16.134,32.551,16.134s-8.037,16.132-32.551,16.132c-1.885,0-3.738-0.103-5.562-0.279
			c-4.205,3.473-9.8,5.592-15.941,5.592c-1.405,0-2.779-0.117-4.117-0.328c5.874-0.271,11.185-2.479,15.165-5.934
			c-12.357-2.189-22.7-7.713-28.605-11.461C8.895,30.312,5.431,38.96,0.578,38.96c-0.199,0-0.386,0-0.578,0
			C3.632,35.898,6.002,30.966,6.002,25.384z"/>
	</g>
</g>
</svg>
