<?xml version="1.0" encoding="iso-8859-1"?>
<!-- Generator: Adobe Illustrator 16.0.4, SVG Export Plug-In . SVG Version: 6.00 Build 0)  -->
<!DOCTYPE svg PUBLIC "-//W3C//DTD SVG 1.1//EN" "http://www.w3.org/Graphics/SVG/1.1/DTD/svg11.dtd">
<svg version="1.1" xmlns="http://www.w3.org/2000/svg" xmlns:xlink="http://www.w3.org/1999/xlink" x="0px" y="0px"
	 width="100.752px" height="48.723px" viewBox="0 0 100.752 48.723" style="enable-background:new 0 0 100.752 48.723;"
	 xml:space="preserve">
<g id="Layer_1">
</g>
<g id="fish">
	<g id="_x37_">
		<path style="fill:#3C91CF;" d="M6.819,28.837c0-1.546,0-7.397,0-8.94C6.819,13.554,4.126,7.949,0,4.474c0.219,0,0.432,0,0.657,0
			c5.525,0,9.318,9.87,18.687,15.705c6.795-4.322,18.828-10.753,33.19-13.172c-3.85-3.566-8.896-6.074-14.558-6.972
			c0.455-0.021,0.913-0.031,1.375-0.031c6.975,0,13.331,2.407,18.108,6.354c2.072-0.199,4.177-0.319,6.318-0.319
			c27.847,0,36.975,18.327,36.975,18.327s-9.128,18.326-36.975,18.326c-2.142,0-4.246-0.118-6.318-0.318
			c-4.777,3.946-11.134,6.354-18.108,6.354c-1.596,0-3.157-0.133-4.677-0.374c6.673-0.306,12.706-2.813,17.227-6.738
			c-14.037-2.489-25.785-8.763-32.493-13.02c-9.304,5.84-13.237,15.662-18.75,15.662c-0.225,0-0.438,0-0.657,0
			C4.126,40.78,6.819,35.177,6.819,28.837z"/>
	</g>
</g>
</svg>
