<?xml version="1.0" encoding="iso-8859-1"?>
<!-- Generator: Adobe Illustrator 16.0.4, SVG Export Plug-In . SVG Version: 6.00 Build 0)  -->
<!DOCTYPE svg PUBLIC "-//W3C//DTD SVG 1.1//EN" "http://www.w3.org/Graphics/SVG/1.1/DTD/svg11.dtd">
<svg version="1.1" xmlns="http://www.w3.org/2000/svg" xmlns:xlink="http://www.w3.org/1999/xlink" x="0px" y="0px"
	 width="133.69px" height="64.649px" viewBox="0 0 133.69 64.649" style="enable-background:new 0 0 133.69 64.649;"
	 xml:space="preserve">
<g id="Layer_1">
</g>
<g id="fish">
	<g id="_x35_">
		<path style="fill:#68A2D7;" d="M124.641,38.259c0-2.047,0-9.812,0-11.862c0-8.414,3.574-15.848,9.05-20.463
			c-0.29,0-0.573,0-0.872,0c-7.332,0-12.364,13.096-24.795,20.84c-9.018-5.735-24.982-14.269-44.042-17.476
			C69.09,4.562,75.787,1.237,83.3,0.046c-0.604-0.028-1.212-0.042-1.825-0.042c-9.255,0-17.689,3.195-24.027,8.431
			c-2.751-0.266-5.542-0.425-8.383-0.425C12.115,8.01,0,32.329,0,32.329s12.115,24.316,49.064,24.316
			c2.842,0,5.632-0.158,8.383-0.422c6.338,5.236,14.772,8.43,24.027,8.43c2.117,0,4.188-0.177,6.205-0.497
			c-8.855-0.404-16.857-3.732-22.857-8.941c18.626-3.302,34.215-11.625,43.116-17.276c12.345,7.75,17.563,20.784,24.88,20.784
			c0.299,0,0.582,0,0.872,0C128.215,54.109,124.641,46.675,124.641,38.259z"/>
	</g>
</g>
</svg>
