<?xml version="1.0" encoding="iso-8859-1"?>
<!-- Generator: Adobe Illustrator 16.0.4, SVG Export Plug-In . SVG Version: 6.00 Build 0)  -->
<!DOCTYPE svg PUBLIC "-//W3C//DTD SVG 1.1//EN" "http://www.w3.org/Graphics/SVG/1.1/DTD/svg11.dtd">
<svg version="1.1" xmlns="http://www.w3.org/2000/svg" xmlns:xlink="http://www.w3.org/1999/xlink" x="0px" y="0px"
	 width="90.926px" height="43.969px" viewBox="0 0 90.926 43.969" style="enable-background:new 0 0 90.926 43.969;"
	 xml:space="preserve">
<g id="Layer_1">
</g>
<g id="fish">
	<g id="_x38_">
		<path style="fill:#3C91CF;" d="M84.772,26.021c0-1.393,0-6.676,0-8.067c0-5.723,2.43-10.781,6.154-13.918
			c-0.197,0-0.391,0-0.594,0c-4.986,0-8.408,8.906-16.863,14.174c-6.134-3.901-16.991-9.705-29.954-11.887
			c3.475-3.221,8.03-5.481,13.138-6.292c-0.41-0.02-0.822-0.027-1.24-0.027c-6.295,0-12.031,2.172-16.342,5.732
			c-1.871-0.181-3.769-0.289-5.702-0.289C8.238,5.447,0,21.988,0,21.988s8.238,16.54,33.369,16.54c1.933,0,3.832-0.108,5.702-0.289
			c4.311,3.562,10.047,5.733,16.342,5.733c1.441,0,2.85-0.119,4.221-0.337c-6.023-0.275-11.467-2.539-15.547-6.082
			c12.668-2.245,23.271-7.906,29.325-11.749c8.396,5.271,11.946,14.135,16.921,14.135c0.203,0,0.396,0,0.594,0
			C87.202,36.803,84.772,31.745,84.772,26.021z"/>
	</g>
</g>
</svg>
