<?xml version="1.0" encoding="iso-8859-1"?>
<!-- Generator: Adobe Illustrator 16.0.4, SVG Export Plug-In . SVG Version: 6.00 Build 0)  -->
<!DOCTYPE svg PUBLIC "-//W3C//DTD SVG 1.1//EN" "http://www.w3.org/Graphics/SVG/1.1/DTD/svg11.dtd">
<svg version="1.1" xmlns="http://www.w3.org/2000/svg" xmlns:xlink="http://www.w3.org/1999/xlink" x="0px" y="0px"
	 width="130.632px" height="63.172px" viewBox="0 0 130.632 63.172" style="enable-background:new 0 0 130.632 63.172;"
	 xml:space="preserve">
<g id="Layer_1">
</g>
<g id="fish">
	<g id="_x36_">
		<path style="fill:#8CB4E0;" d="M121.792,37.385c0-2.001,0-9.588,0-11.591c0-8.222,3.49-15.487,8.84-19.995
			c-0.281,0-0.558,0-0.85,0c-7.166,0-12.082,12.796-24.229,20.362c-8.812-5.604-24.41-13.941-43.034-17.076
			c4.993-4.627,11.536-7.876,18.874-9.04c-0.589-0.027-1.182-0.041-1.78-0.041c-9.044,0-17.286,3.122-23.479,8.237
			c-2.687-0.258-5.415-0.413-8.191-0.413C11.837,7.828,0,31.591,0,31.591s11.837,23.762,47.941,23.762
			c2.776,0,5.505-0.154,8.191-0.414c6.194,5.116,14.436,8.237,23.479,8.237c2.069,0,4.093-0.171,6.063-0.483
			c-8.652-0.396-16.474-3.65-22.335-8.739c18.2-3.226,33.433-11.359,42.13-16.88c12.062,7.571,17.163,20.307,24.312,20.307
			c0.292,0,0.568,0,0.85,0C125.282,52.874,121.792,45.608,121.792,37.385z"/>
	</g>
</g>
</svg>
