<?xml version="1.0" encoding="iso-8859-1"?>
<!-- Generator: Adobe Illustrator 16.0.4, SVG Export Plug-In . SVG Version: 6.00 Build 0)  -->
<!DOCTYPE svg PUBLIC "-//W3C//DTD SVG 1.1//EN" "http://www.w3.org/Graphics/SVG/1.1/DTD/svg11.dtd">
<svg version="1.1" xmlns="http://www.w3.org/2000/svg" xmlns:xlink="http://www.w3.org/1999/xlink" x="0px" y="0px"
	 width="184.786px" height="89.357px" viewBox="0 0 184.786 89.357" style="enable-background:new 0 0 184.786 89.357;"
	 xml:space="preserve">
<g id="Layer_1">
</g>
<g id="fish">
	<g id="_x32_">
		<path style="fill:#8CB4E0;" d="M172.28,52.881c0-2.834,0-13.567,0-16.397c0-11.632,4.938-21.907,12.506-28.284
			c-0.399,0-0.789,0-1.203,0c-10.134,0-17.09,18.102-34.271,28.802c-12.464-7.926-34.53-19.72-60.873-24.152
			c7.059-6.546,16.318-11.143,26.699-12.79c-0.834-0.039-1.674-0.055-2.524-0.055c-12.789,0-24.448,4.412-33.209,11.65
			c-3.799-0.365-7.661-0.586-11.588-0.586C16.743,11.068,0,44.681,0,44.681s16.743,33.611,67.816,33.611
			c3.927,0,7.789-0.218,11.588-0.584c8.761,7.236,20.42,11.653,33.209,11.653c2.931,0,5.792-0.246,8.58-0.686
			c-12.237-0.561-23.305-5.164-31.595-12.361c25.745-4.564,47.292-16.068,59.595-23.879c17.062,10.713,24.278,28.728,34.39,28.728
			c0.414,0,0.804,0,1.203,0C177.218,74.788,172.28,64.512,172.28,52.881z"/>
	</g>
</g>
</svg>
