<?xml version="1.0" encoding="iso-8859-1"?>
<!-- Generator: Adobe Illustrator 16.0.4, SVG Export Plug-In . SVG Version: 6.00 Build 0)  -->
<!DOCTYPE svg PUBLIC "-//W3C//DTD SVG 1.1//EN" "http://www.w3.org/Graphics/SVG/1.1/DTD/svg11.dtd">
<svg version="1.1" xmlns="http://www.w3.org/2000/svg" xmlns:xlink="http://www.w3.org/1999/xlink" x="0px" y="0px"
	 width="448.225px" height="404.843px" viewBox="0 0 448.225 404.843" style="enable-background:new 0 0 448.225 404.843;"
	 xml:space="preserve">
<g id="Layer_1">
</g>
<g id="bowl">
	<g>
		<path style="fill:#FFFFFF;" d="M351.577,14.49h-0.104h-27.225H125.921H98.595C50.125,50.101,18.94,105.694,18.94,168.167
			c0,107.486,92.295,194.621,206.146,194.621c113.851,0,206.146-87.135,206.146-194.621
			C431.231,105.694,400.046,50.101,351.577,14.49z"/>
		<path style="fill:#61BBD4;" d="M358.326,4.649h-0.11h-28.675H120.63H91.846C40.791,44.379,7.941,106.408,7.941,176.111
			c0,119.927,97.219,217.146,217.145,217.146c119.925,0,217.146-97.219,217.146-217.146
			C442.231,106.408,409.383,44.379,358.326,4.649z M225.086,367.192c-116.731,0-211.361-89.338-211.361-199.543
			c0-64.055,31.974-121.053,81.67-157.563h28.018H326.76h27.911h0.106c49.694,36.511,81.67,93.509,81.67,157.563
			C436.447,277.854,341.817,367.192,225.086,367.192z"/>
		<path style="fill:#B1E1EE;" d="M375.447,35.063H74.725C40.138,69.87,18.94,116.674,18.94,168.167
			c0,107.486,92.295,194.621,206.146,194.621c113.851,0,206.146-87.135,206.146-194.621
			C431.231,116.674,410.032,69.87,375.447,35.063z"/>
		<path style="fill:#FEBC11;" d="M385.989,289.817c-3.983-0.211-7.98-0.372-12.005-0.422
			c-34.051-0.426-105.416,25.643-137.088,24.781c-61.925-1.687-96.906-16.701-153.93-12.152c-2.313,0.185-4.617,0.393-6.922,0.595
			c37.535,37.075,90.431,60.169,149.042,60.169C290.177,362.788,348.209,334.297,385.989,289.817z"/>
		<path style="fill:#FFD161;" d="M308.106,314.335c-52.634-0.906-97.346,10.046-149.956,11.431
			c-17.697,0.469-43.472-5.489-66.291-9.094c35.932,28.758,82.429,46.115,133.226,46.115c51.216,0,98.062-17.641,134.112-46.824
			C342.188,315.188,325.152,314.627,308.106,314.335z"/>
		<g>
			<g>
				<path style="fill:#C4C4C4;" d="M137.393,313.684c0,1.271-1.194,1.555-2.667,1.555s-2.667-0.283-2.667-1.555
					c0-1.272,1.194-2.303,2.667-2.303S137.393,312.412,137.393,313.684z"/>
				<path style="fill:#D8D9D8;" d="M134.638,312.667c0,0.397-0.373,0.485-0.834,0.485c-0.461,0-0.835-0.088-0.835-0.485
					c0-0.399,0.374-0.723,0.835-0.723C134.265,311.945,134.638,312.268,134.638,312.667z"/>
				<path style="fill:#A7A8A5;" d="M136.655,312.096c0.027,0.131,0.043,0.266,0.043,0.402c0,1.271-1.194,1.553-2.667,1.553
					c-0.782,0-1.483-0.081-1.971-0.345c0.014,1.252,1.202,1.532,2.666,1.532c1.473,0,2.667-0.283,2.667-1.555
					C137.393,313.068,137.11,312.51,136.655,312.096z"/>
			</g>
			<g>
				<path style="fill:#A7A8A5;" d="M148.708,305.07c0,2.699-2.534,3.296-5.659,3.296c-3.126,0-5.661-0.597-5.661-3.296
					c0-2.698,2.535-4.889,5.661-4.889C146.175,300.181,148.708,302.372,148.708,305.07z"/>
				<path style="fill:#C4C4C4;" d="M142.863,302.91c0,0.845-0.793,1.03-1.772,1.03c-0.979,0-1.772-0.186-1.772-1.03
					s0.793-1.531,1.772-1.531C142.069,301.378,142.863,302.065,142.863,302.91z"/>
				<path style="fill:#868786;" d="M147.143,301.701c0.056,0.276,0.091,0.56,0.091,0.851c0,2.698-2.534,3.296-5.66,3.296
					c-1.659,0-3.146-0.171-4.182-0.734c0.029,2.66,2.549,3.253,5.657,3.253c3.125,0,5.659-0.597,5.659-3.296
					C148.708,303.761,148.11,302.578,147.143,301.701z"/>
			</g>
			<g>
				<path style="fill:#C4C4C4;" d="M154.487,309.52c0,2.385-2.237,2.909-4.997,2.909c-2.759,0-4.997-0.524-4.997-2.909
					c0-2.383,2.237-4.316,4.997-4.316C152.25,305.204,154.487,307.137,154.487,309.52z"/>
				<path style="fill:#D8D9D8;" d="M149.326,307.613c0,0.746-0.7,0.912-1.564,0.912c-0.864,0-1.564-0.166-1.564-0.912
					s0.7-1.352,1.564-1.352C148.626,306.261,149.326,306.867,149.326,307.613z"/>
				<path style="fill:#A7A8A5;" d="M153.105,306.545c0.05,0.245,0.081,0.495,0.081,0.752c0,2.382-2.237,2.91-4.997,2.91
					c-1.464,0-2.778-0.152-3.692-0.648c0.026,2.349,2.251,2.87,4.995,2.87c2.76,0,4.997-0.524,4.997-2.909
					C154.487,308.366,153.96,307.32,153.105,306.545z"/>
			</g>
			<g>
				<path style="fill:#C4C4C4;" d="M302.852,314.985c0,3.086-2.896,3.77-6.47,3.77c-3.571,0-6.471-0.684-6.471-3.77
					c0-3.085,2.899-5.588,6.471-5.588C299.955,309.397,302.852,311.9,302.852,314.985z"/>
				<path style="fill:#D8D9D8;" d="M296.169,312.516c0,0.966-0.907,1.18-2.024,1.18c-1.12,0-2.027-0.214-2.027-1.18
					c0-0.967,0.907-1.75,2.027-1.75C295.262,310.766,296.169,311.549,296.169,312.516z"/>
				<path style="fill:#A7A8A5;" d="M301.061,311.134c0.064,0.316,0.105,0.641,0.105,0.973c0,3.086-2.896,3.769-6.47,3.769
					c-1.896,0-3.597-0.197-4.781-0.838c0.032,3.04,2.913,3.717,6.467,3.717c3.573,0,6.47-0.684,6.47-3.77
					C302.852,313.491,302.167,312.137,301.061,311.134z"/>
			</g>
			<g>
				<path style="fill:#A7A8A5;" d="M324.568,322.969c0,2.906-2.728,3.549-6.095,3.549c-3.363,0-6.093-0.643-6.093-3.549
					c0-2.907,2.729-5.263,6.093-5.263C321.841,317.707,324.568,320.062,324.568,322.969z"/>
				<path style="fill:#C4C4C4;" d="M318.275,320.643c0,0.911-0.856,1.112-1.908,1.112c-1.055,0-1.908-0.201-1.908-1.112
					c0-0.91,0.854-1.647,1.908-1.647C317.419,318.996,318.275,319.733,318.275,320.643z"/>
				<path style="fill:#868786;" d="M322.883,319.341c0.061,0.299,0.098,0.604,0.098,0.916c0,2.907-2.728,3.55-6.095,3.55
					c-1.785,0-3.388-0.185-4.501-0.791c0.031,2.865,2.746,3.502,6.089,3.502c3.367,0,6.095-0.643,6.095-3.549
					C324.568,321.561,323.925,320.285,322.883,319.341z"/>
			</g>
			<g>
				<path style="fill:#A7A8A5;" d="M261.287,320.323c0,2.504-2.352,3.058-5.251,3.058c-2.898,0-5.248-0.554-5.248-3.058
					s2.35-4.533,5.248-4.533C258.936,315.79,261.287,317.819,261.287,320.323z"/>
				<path style="fill:#C4C4C4;" d="M255.865,318.319c0,0.783-0.736,0.957-1.646,0.957c-0.907,0-1.645-0.174-1.645-0.957
					c0-0.784,0.737-1.419,1.645-1.419C255.129,316.9,255.865,317.535,255.865,318.319z"/>
				<path style="fill:#868786;" d="M259.832,317.197c0.054,0.259,0.086,0.521,0.086,0.79c0,2.504-2.35,3.058-5.25,3.058
					c-1.539,0-2.918-0.159-3.878-0.681c0.026,2.468,2.365,3.017,5.246,3.017c2.899,0,5.251-0.554,5.251-3.058
					C261.287,319.11,260.731,318.011,259.832,317.197z"/>
			</g>
			<g>
				<path style="fill:#C4C4C4;" d="M287.304,317.285c0,2.347-2.202,2.865-4.922,2.865c-2.715,0-4.92-0.519-4.92-2.865
					c0-2.349,2.205-4.251,4.92-4.251C285.102,313.034,287.304,314.936,287.304,317.285z"/>
				<path style="fill:#D8D9D8;" d="M282.221,315.406c0,0.735-0.69,0.897-1.54,0.897c-0.851,0-1.541-0.162-1.541-0.897
					c0-0.734,0.69-1.33,1.541-1.33C281.53,314.076,282.221,314.671,282.221,315.406z"/>
				<path style="fill:#A7A8A5;" d="M285.941,314.356c0.049,0.24,0.079,0.486,0.079,0.739c0,2.347-2.202,2.866-4.919,2.866
					c-1.443,0-2.736-0.15-3.637-0.639c0.026,2.312,2.219,2.827,4.917,2.827c2.72,0,4.922-0.519,4.922-2.865
					C287.304,316.147,286.783,315.117,285.941,314.356z"/>
			</g>
			<g>
				<path style="fill:#C4C4C4;" d="M169.418,312.715c0,1.724-1.618,2.104-3.612,2.104c-1.996,0-3.613-0.381-3.613-2.104
					s1.618-3.12,3.613-3.12C167.801,309.595,169.418,310.992,169.418,312.715z"/>
				<path style="fill:#D8D9D8;" d="M165.687,311.336c0,0.54-0.506,0.66-1.131,0.66c-0.625,0-1.131-0.12-1.131-0.66
					c0-0.539,0.506-0.977,1.131-0.977C165.18,310.36,165.687,310.797,165.687,311.336z"/>
				<path style="fill:#A7A8A5;" d="M168.419,310.564c0.036,0.178,0.058,0.358,0.058,0.544c0,1.724-1.618,2.104-3.613,2.104
					c-1.059,0-2.009-0.109-2.67-0.468c0.019,1.698,1.628,2.076,3.612,2.076c1.995,0,3.612-0.381,3.612-2.104
					C169.418,311.88,169.037,311.125,168.419,310.564z"/>
			</g>
			<g>
				<path style="fill:#C4C4C4;" d="M331.474,325.231c0,1.648-1.547,2.013-3.453,2.013s-3.452-0.364-3.452-2.013
					c0-1.646,1.546-2.98,3.452-2.98S331.474,323.585,331.474,325.231z"/>
				<path style="fill:#D8D9D8;" d="M327.906,323.916c0,0.515-0.482,0.63-1.081,0.63c-0.597,0-1.08-0.115-1.08-0.63
					c0-0.516,0.483-0.934,1.08-0.934C327.424,322.982,327.906,323.4,327.906,323.916z"/>
				<path style="fill:#A7A8A5;" d="M330.518,323.177c0.034,0.168,0.057,0.342,0.057,0.52c0,1.646-1.546,2.01-3.454,2.01
					c-1.012,0-1.919-0.104-2.55-0.446c0.018,1.622,1.557,1.983,3.45,1.983c1.906,0,3.453-0.364,3.453-2.013
					C331.474,324.436,331.107,323.712,330.518,323.177z"/>
			</g>
			<g>
				<path style="fill:#C4C4C4;" d="M344.275,320.685c0,3.088-2.896,3.769-6.468,3.769c-3.574,0-6.471-0.681-6.471-3.769
					c0-3.085,2.896-5.587,6.471-5.587C341.379,315.098,344.275,317.6,344.275,320.685z"/>
				<path style="fill:#D8D9D8;" d="M337.593,318.217c0,0.966-0.907,1.179-2.024,1.179c-1.12,0-2.027-0.213-2.027-1.179
					c0-0.967,0.907-1.75,2.027-1.75C336.686,316.467,337.593,317.25,337.593,318.217z"/>
				<path style="fill:#A7A8A5;" d="M342.486,316.834c0.064,0.316,0.104,0.642,0.104,0.974c0,3.086-2.895,3.769-6.471,3.769
					c-1.896,0-3.596-0.197-4.78-0.84c0.034,3.042,2.915,3.717,6.469,3.717c3.571,0,6.468-0.681,6.468-3.769
					C344.275,319.191,343.591,317.836,342.486,316.834z"/>
			</g>
		</g>
		<rect x="104.827" y="357.152" style="fill:#40ACC6;" width="240.519" height="39.679"/>
		<g>
			<path style="fill:#FFFFFF;" d="M73.051,84.053c0.502-1.162,0.943-2.242,1.319-3.229c1.503-3.951,1.979-6.453,1.167-7.013
				c-0.812-0.562-2.849,0.88-5.89,4.062c-0.761,0.795-1.583,1.698-2.463,2.704c-0.848,1.028-1.671,2.205-2.583,3.46
				c-1.774,2.538-3.909,5.403-5.734,8.859c-0.949,1.719-1.942,3.516-2.977,5.39c-1.009,1.892-1.847,3.951-2.811,6.051
				c-2.003,4.18-3.566,8.861-5.272,13.784c-3.068,9.938-5.464,21.209-6.444,33.211c-0.847,12.015-0.183,23.518,1.346,33.805
				c0.942,5.124,1.78,9.99,3.128,14.423c0.636,2.221,1.152,4.384,1.864,6.406c0.739,2.008,1.449,3.937,2.127,5.777
				c1.28,3.692,2.957,6.848,4.327,9.625c0.711,1.38,1.347,2.668,2.03,3.811c0.718,1.129,1.395,2.146,2.026,3.046
				c2.525,3.604,4.32,5.339,5.208,4.905c0.888-0.431,0.796-2.976-0.093-7.107c-0.222-1.035-0.496-2.168-0.815-3.392
				c-0.263-1.245-0.549-2.596-0.856-4.047c-0.602-2.894-1.538-6.078-2.129-9.721c-0.36-1.795-0.737-3.675-1.13-5.634
				c-0.392-1.953-0.605-4.031-0.955-6.143c-0.776-4.211-1.111-8.783-1.645-13.545c-0.711-9.572-0.937-20.103-0.167-31.124
				c0.906-11.012,2.721-21.387,4.872-30.74c1.249-4.627,2.271-9.098,3.674-13.142c0.666-2.035,1.191-4.057,1.874-5.927
				c0.685-1.877,1.341-3.679,1.969-5.399c1.135-3.511,2.542-6.518,3.574-9.286C72.116,86.537,72.603,85.244,73.051,84.053z"/>
			
				<ellipse transform="matrix(-0.5169 -0.8561 0.8561 -0.5169 -104.4001 464.3964)" style="fill:#FFFFFF;" cx="78.847" cy="261.659" rx="16.906" ry="5.503"/>
			<path style="fill:#FFFFFF;" d="M112.951,302.536c-1.154-2.458-2.995-5.334-5.2-8.345c-2.196-3.021-4.37-5.65-6.358-7.499
				c-1.984-1.832-3.828-2.87-5.26-2.317c-1.403,0.538-2.104,2.652-1.75,5.696c0.342,3.029,1.814,6.949,4.478,10.605
				c2.668,3.653,5.953,6.253,8.732,7.504c2.792,1.264,5.02,1.244,5.961,0.071C114.515,307.056,114.091,304.984,112.951,302.536z"/>
		</g>
	</g>
	<g>
	</g>
	<g>
	</g>
	<g>
	</g>
	<g>
	</g>
	<g>
	</g>
	<g>
	</g>
</g>
</svg>
