<?xml version="1.0" encoding="iso-8859-1"?>
<!-- Generator: Adobe Illustrator 16.0.4, SVG Export Plug-In . SVG Version: 6.00 Build 0)  -->
<!DOCTYPE svg PUBLIC "-//W3C//DTD SVG 1.1//EN" "http://www.w3.org/Graphics/SVG/1.1/DTD/svg11.dtd">
<svg version="1.1" xmlns="http://www.w3.org/2000/svg" xmlns:xlink="http://www.w3.org/1999/xlink" x="0px" y="0px"
	 width="169.794px" height="82.108px" viewBox="0 0 169.794 82.108" style="enable-background:new 0 0 169.794 82.108;"
	 xml:space="preserve">
<g id="Layer_1">
</g>
<g id="fish">
	<g id="_x33_">
		<path style="fill:#68A2D7;" d="M11.49,48.592c0-2.602,0-12.466,0-15.067c0-10.686-4.537-20.13-11.49-25.988
			c0.368,0,0.728,0,1.105,0c9.313,0,15.703,16.632,31.492,26.467c11.454-7.284,31.729-18.123,55.93-22.195
			C82.043,5.792,73.537,1.57,63.999,0.057c0.767-0.036,1.537-0.053,2.317-0.053c11.751,0,22.465,4.058,30.516,10.706
			c3.492-0.335,7.038-0.535,10.646-0.535c46.932,0,62.315,30.884,62.315,30.884s-15.384,30.884-62.315,30.884
			c-3.608,0-7.154-0.2-10.646-0.536c-8.051,6.648-18.765,10.706-30.516,10.706c-2.691,0-5.321-0.226-7.884-0.63
			c11.246-0.515,21.414-4.743,29.032-11.359C63.81,65.931,44.009,55.358,32.704,48.182C17.026,58.025,10.396,74.581,1.105,74.581
			c-0.378,0-0.737,0-1.105,0C6.953,68.722,11.49,59.278,11.49,48.592z"/>
	</g>
</g>
</svg>
