<?xml version="1.0" encoding="iso-8859-1"?>
<!-- Generator: Adobe Illustrator 16.0.4, SVG Export Plug-In . SVG Version: 6.00 Build 0)  -->
<!DOCTYPE svg PUBLIC "-//W3C//DTD SVG 1.1//EN" "http://www.w3.org/Graphics/SVG/1.1/DTD/svg11.dtd">
<svg version="1.1" xmlns="http://www.w3.org/2000/svg" xmlns:xlink="http://www.w3.org/1999/xlink" x="0px" y="0px"
	 width="88.695px" height="42.893px" viewBox="0 0 88.695 42.893" style="enable-background:new 0 0 88.695 42.893;"
	 xml:space="preserve">
<g id="Layer_1">
</g>
<g id="fish">
	<g id="_x31_0">
		<path style="fill:#3C91CF;" d="M6.004,25.387c0-1.359,0-6.513,0-7.872C6.004,11.933,3.633,6.999,0,3.938c0.192,0,0.379,0,0.578,0
			c4.866,0,8.204,8.69,16.451,13.825c5.983-3.805,16.574-9.466,29.218-11.593c-3.389-3.143-7.832-5.347-12.815-6.139
			c0.4-0.02,0.804-0.028,1.211-0.028c6.14,0,11.735,2.12,15.941,5.595c1.823-0.177,3.676-0.28,5.561-0.28
			c24.513,0,32.551,16.132,32.551,16.132s-8.038,16.133-32.551,16.133c-1.885,0-3.737-0.104-5.561-0.28
			c-4.206,3.474-9.802,5.594-15.941,5.594c-1.405,0-2.78-0.118-4.117-0.329c5.875-0.269,11.186-2.477,15.165-5.935
			c-12.357-2.188-22.699-7.713-28.605-11.459C8.894,30.314,5.432,38.96,0.578,38.96c-0.199,0-0.386,0-0.578,0
			C3.633,35.9,6.004,30.968,6.004,25.387z"/>
	</g>
</g>
</svg>
