<?xml version="1.0" encoding="iso-8859-1"?>
<!-- Generator: Adobe Illustrator 16.0.4, SVG Export Plug-In . SVG Version: 6.00 Build 0)  -->
<!DOCTYPE svg PUBLIC "-//W3C//DTD SVG 1.1//EN" "http://www.w3.org/Graphics/SVG/1.1/DTD/svg11.dtd">
<svg version="1.1" xmlns="http://www.w3.org/2000/svg" xmlns:xlink="http://www.w3.org/1999/xlink" x="0px" y="0px"
	 width="95.416px" height="253.157px" viewBox="0 0 95.416 253.157" style="enable-background:new 0 0 95.416 253.157;"
	 xml:space="preserve">
<g id="Layer_1">
</g>
<g id="Isolation_Mode">
	<g style="opacity:0.5;">
		<path style="fill:#FFFFFF;" d="M45.461,21.731c0.502-1.162,0.943-2.242,1.319-3.229c1.503-3.951,1.979-6.453,1.167-7.013
			c-0.812-0.562-2.849,0.88-5.89,4.062c-0.761,0.795-1.583,1.698-2.463,2.704c-0.848,1.028-1.671,2.205-2.583,3.46
			c-1.774,2.538-3.909,5.403-5.734,8.859c-0.949,1.719-1.942,3.516-2.977,5.39c-1.009,1.892-1.847,3.951-2.811,6.051
			c-2.003,4.18-3.566,8.861-5.272,13.784c-3.068,9.938-5.464,21.209-6.444,33.211c-0.847,12.015-0.183,23.518,1.346,33.805
			c0.942,5.124,1.78,9.99,3.128,14.423c0.636,2.221,1.152,4.384,1.864,6.406c0.739,2.008,1.449,3.937,2.127,5.777
			c1.28,3.692,2.957,6.848,4.327,9.625c0.711,1.38,1.347,2.668,2.03,3.811c0.718,1.129,1.395,2.146,2.026,3.046
			c2.525,3.604,4.32,5.339,5.208,4.905c0.888-0.431,0.796-2.976-0.093-7.107c-0.222-1.035-0.496-2.168-0.815-3.392
			c-0.263-1.245-0.549-2.596-0.856-4.047c-0.602-2.894-1.538-6.078-2.129-9.721c-0.36-1.795-0.737-3.675-1.13-5.634
			c-0.392-1.953-0.605-4.031-0.955-6.143c-0.776-4.211-1.111-8.783-1.645-13.545c-0.711-9.572-0.937-20.103-0.167-31.124
			c0.906-11.012,2.721-21.387,4.872-30.74c1.249-4.627,2.271-9.098,3.674-13.142c0.666-2.035,1.191-4.057,1.874-5.927
			c0.685-1.877,1.341-3.679,1.969-5.399c1.135-3.511,2.542-6.518,3.574-9.286C44.526,24.215,45.013,22.922,45.461,21.731z"/>
		
			<ellipse transform="matrix(-0.5169 -0.8561 0.8561 -0.5169 -92.8977 346.2445)" style="fill:#FFFFFF;" cx="51.257" cy="199.337" rx="16.906" ry="5.503"/>
		<path style="fill:#FFFFFF;" d="M85.361,240.214c-1.154-2.458-2.994-5.334-5.2-8.345c-2.196-3.021-4.37-5.65-6.358-7.499
			c-1.984-1.832-3.828-2.87-5.26-2.317c-1.402,0.538-2.104,2.652-1.75,5.696c0.342,3.029,1.814,6.949,4.478,10.605
			c2.669,3.653,5.952,6.253,8.731,7.504c2.793,1.264,5.021,1.244,5.961,0.071C86.925,244.734,86.501,242.662,85.361,240.214z"/>
	</g>
	<g>
	</g>
	<g>
	</g>
	<g>
	</g>
	<g>
	</g>
	<g>
	</g>
	<g>
	</g>
</g>
</svg>
